<svg xmlns="http://www.w3.org/2000/svg" version="1.1" xmlns:xlink="http://www.w3.org/1999/xlink" xmlns:svgjs="http://svgjs.dev/svgjs" width="800" height="715" viewBox="0 0 800 715"><g transform="matrix(1,0,0,1,2.025263157894699,1.6061459303682568)"><svg xmlns="http://www.w3.org/2000/svg" version="1.1" xmlns:xlink="http://www.w3.org/1999/xlink" xmlns:svgjs="http://svgjs.com/svgjs" viewBox="0 0 95 85" data-background-color="#f8efed" preserveAspectRatio="xMidYMid meet" height="715" width="800"><defs></defs><g id="tight-bounds" transform="matrix(1,0,0,1,-0.24049999999999727,-0.19094042528853095)"><svg viewBox="0 0 95.48100000000001 85.38188085057705" height="85.38188085057705" width="95.48100000000001"><g><svg viewBox="0 0 95.48100000000001 85.38188085057705" height="85.38188085057705" width="95.48100000000001"><g><svg viewBox="0 0 95.48100000000001 85.38188085057705" height="85.38188085057705" width="95.48100000000001"><g><svg viewBox="0 0 95.48100000000001 85.38188085057705" height="85.38188085057705" width="95.48100000000001"><g><svg viewBox="0 0 95.48100000000001 85.38188085057705" height="85.38188085057705" width="95.48100000000001"><g><svg viewBox="0 0 95.48100000000001 85.38188085057705" height="85.38188085057705" width="95.48100000000001"><g><svg xmlns="http://www.w3.org/2000/svg" xmlns:xlink="http://www.w3.org/1999/xlink" version="1.1" x="0" y="0" viewBox="4.998124409491116 9.7577856 90.00216907471086 80.48255125344784" enable-background="new 0 0 100 100" xml:space="preserve" height="85.38188085057705" width="95.48100000000001" class="icon-icon-0" fill="#e72f1e" data-fill-palette-color="accent" id="icon-0"><path d="M94.871 45.849c-0.004-0.005-0.051-0.065-0.142-0.172-0.091-0.107-0.228-0.261-0.412-0.457-0.185-0.195-0.418-0.43-0.715-0.689-0.3-0.256-0.654-0.548-1.119-0.817-0.233-0.133-0.494-0.262-0.799-0.359-0.302-0.097-0.655-0.164-1.043-0.135-0.386 0.025-0.8 0.163-1.139 0.396-0.343 0.232-0.614 0.533-0.836 0.86l-0.035 0.051-0.018 0.026-0.031 0.049c-0.032 0.051-0.061 0.103-0.088 0.156-0.053 0.105-0.099 0.211-0.135 0.316-0.075 0.211-0.119 0.419-0.152 0.623-0.062 0.408-0.073 0.802-0.071 1.193 0.007 0.782 0.073 1.561 0.111 2.36 0.039 0.797 0.051 1.612-0.017 2.428-0.069 0.815-0.241 1.626-0.547 2.378-0.31 0.751-0.778 1.425-1.38 1.992-0.603 0.567-1.35 1.018-2.18 1.361-0.831 0.344-1.745 0.577-2.694 0.736-0.952 0.152-1.94 0.235-2.945 0.263-0.503 0.015-1.01 0.016-1.52 0.007-0.51-0.005-1.023-0.02-1.538-0.044-0.512-0.026-1.038-0.054-1.544-0.089-0.236-0.018-0.553-0.033-0.78-0.054l-0.743-0.067c-1.796-0.183-3.525-0.494-5.113-0.997 0.193 0.008 0.384 0.014 0.574 0.015 0.525-0.001 1.042-0.026 1.544-0.081l0.188-0.02 0.229-0.027 0.316-0.047 0.159-0.024 0.202-0.035 0.403-0.073c0.995-0.203 1.966-0.499 2.892-0.891 1.858-0.776 3.497-1.937 4.833-3.26 0.671-0.662 1.272-1.363 1.81-2.085 0.266-0.363 0.521-0.729 0.757-1.1 0.24-0.369 0.466-0.741 0.675-1.118 0.85-1.498 1.5-3.023 2.006-4.532 0.512-1.508 0.856-3.013 1.05-4.485 0.19-1.472 0.253-2.909 0.162-4.291-0.022-0.345-0.057-0.687-0.098-1.025-0.027-0.193-0.042-0.31-0.075-0.501-0.028-0.177-0.061-0.345-0.095-0.509-0.14-0.66-0.32-1.296-0.544-1.896-0.445-1.203-1.054-2.263-1.729-3.166-0.669-0.91-1.407-1.666-2.141-2.295-0.739-0.625-1.465-1.136-2.159-1.537-0.693-0.402-1.345-0.705-1.932-0.93-0.588-0.224-1.112-0.365-1.552-0.453-0.44-0.086-0.797-0.112-1.045-0.114-0.124-0.001-0.22 0.002-0.286 0.006-0.065 0.004-0.098 0.006-0.098 0.006l-0.006 0c-0.36 0.027-0.63 0.341-0.603 0.7 0.027 0.36 0.341 0.63 0.7 0.603l0.029-0.002c0 0 0.021-0.002 0.063-0.005 0.041-0.004 0.105-0.006 0.192-0.007 0.173 0 0.443 0.018 0.804 0.088 0.361 0.069 0.81 0.198 1.326 0.403 0.516 0.203 1.097 0.485 1.71 0.868 1.226 0.755 2.605 1.917 3.718 3.57 0.548 0.829 1.02 1.779 1.34 2.832 0.162 0.525 0.285 1.077 0.359 1.647 0.019 0.144 0.035 0.286 0.047 0.423 0.014 0.122 0.025 0.322 0.033 0.446 0.014 0.299 0.023 0.602 0.019 0.91-0.011 1.229-0.155 2.519-0.454 3.819-0.292 1.301-0.722 2.616-1.292 3.899-0.581 1.277-1.327 2.514-2.253 3.61-0.462 0.548-0.968 1.059-1.509 1.523-0.541 0.463-1.111 0.887-1.713 1.248-2.41 1.458-5.143 1.992-7.9 1.923-0.662-0.022-1.285-0.09-1.851-0.217-0.57-0.123-1.081-0.298-1.567-0.536-0.486-0.238-0.953-0.548-1.414-0.961-0.233-0.203-0.457-0.437-0.676-0.694-0.224-0.254-0.434-0.536-0.64-0.836-0.827-1.205-1.489-2.726-1.968-4.333-0.123-0.403-0.207-1.672 0.217-2.374 0.424-0.707 0.89-1.402 1.36-2.095 0.942-1.385 1.894-2.768 2.732-4.195 0.836-1.428 1.581-2.893 2.115-4.409 0.539-1.512 0.863-3.071 0.936-4.6 0.016-0.382 0.027-0.762 0.013-1.139-0.002-0.188-0.016-0.378-0.026-0.567-0.011-0.189-0.031-0.366-0.046-0.548-0.079-0.748-0.216-1.462-0.408-2.157-0.381-1.388-0.994-2.651-1.724-3.757-0.732-1.108-1.584-2.06-2.474-2.869-0.891-0.81-1.815-1.484-2.719-2.055-0.906-0.569-1.797-1.031-2.64-1.409-0.845-0.377-1.64-0.679-2.372-0.91-1.464-0.464-2.663-0.67-3.489-0.74-0.414-0.035-0.733-0.038-0.952-0.031-0.112 0.003-0.191 0.008-0.244 0.012C50.035 9.775 50.013 9.777 50 9.778c-0.013-0.001-0.034-0.002-0.067-0.005-0.053-0.004-0.132-0.01-0.244-0.012-0.219-0.007-0.538-0.005-0.952 0.031-0.826 0.07-2.025 0.277-3.489 0.74-0.732 0.231-1.527 0.533-2.372 0.91-0.844 0.378-1.734 0.84-2.64 1.409-0.904 0.571-1.829 1.245-2.719 2.055-0.89 0.809-1.742 1.762-2.474 2.869-0.73 1.106-1.343 2.369-1.724 3.757-0.191 0.695-0.329 1.409-0.408 2.157-0.015 0.182-0.035 0.36-0.046 0.548-0.01 0.188-0.024 0.379-0.026 0.567-0.014 0.377-0.003 0.757 0.013 1.139 0.072 1.529 0.396 3.088 0.936 4.6 0.534 1.516 1.279 2.981 2.115 4.409 0.838 1.428 1.79 2.81 2.732 4.195 0.469 0.693 0.936 1.388 1.36 2.095 0.423 0.702 0.34 1.971 0.217 2.374-0.479 1.608-1.141 3.129-1.968 4.333-0.206 0.3-0.416 0.582-0.64 0.836-0.219 0.257-0.443 0.49-0.676 0.694-0.46 0.413-0.928 0.722-1.414 0.961-0.486 0.238-0.998 0.413-1.567 0.536-0.566 0.127-1.189 0.194-1.851 0.217-2.757 0.069-5.49-0.465-7.9-1.923-0.602-0.361-1.171-0.785-1.713-1.248-0.541-0.464-1.047-0.975-1.509-1.523-0.926-1.095-1.672-2.333-2.253-3.61-0.569-1.283-0.999-2.598-1.292-3.899-0.299-1.3-0.443-2.59-0.454-3.819-0.004-0.307 0.006-0.61 0.019-0.91 0.009-0.125 0.02-0.324 0.033-0.446 0.011-0.136 0.028-0.279 0.047-0.423 0.074-0.571 0.196-1.122 0.359-1.647 0.32-1.053 0.792-2.003 1.34-2.832 1.113-1.654 2.492-2.816 3.718-3.57 0.613-0.383 1.194-0.665 1.71-0.868 0.516-0.204 0.965-0.333 1.326-0.403 0.361-0.07 0.631-0.088 0.804-0.088 0.087 0.001 0.151 0.003 0.192 0.007 0.042 0.003 0.063 0.005 0.063 0.005l0.029 0.002 0.006 0c0.36 0.024 0.671-0.249 0.695-0.609 0.024-0.36-0.249-0.671-0.609-0.695 0 0-0.033-0.002-0.098-0.006-0.066-0.005-0.161-0.008-0.286-0.006-0.248 0.003-0.605 0.028-1.045 0.114-0.439 0.088-0.964 0.229-1.552 0.453-0.587 0.225-1.239 0.528-1.932 0.93-0.694 0.401-1.421 0.912-2.159 1.537-0.734 0.629-1.472 1.385-2.141 2.295-0.675 0.903-1.284 1.962-1.729 3.166-0.224 0.6-0.404 1.236-0.544 1.896-0.034 0.164-0.067 0.332-0.095 0.509-0.033 0.19-0.047 0.308-0.075 0.501-0.041 0.338-0.076 0.679-0.098 1.025-0.091 1.382-0.029 2.819 0.162 4.291 0.194 1.472 0.538 2.978 1.05 4.485 0.506 1.51 1.156 3.034 2.006 4.532 0.209 0.377 0.435 0.749 0.675 1.118 0.236 0.372 0.491 0.737 0.757 1.1 0.538 0.722 1.14 1.423 1.81 2.085 1.336 1.324 2.975 2.485 4.833 3.26 0.926 0.391 1.898 0.688 2.892 0.891l0.403 0.073 0.202 0.035 0.159 0.024 0.316 0.047 0.229 0.027 0.188 0.02c0.502 0.055 1.018 0.08 1.544 0.081 0.19 0 0.381-0.006 0.574-0.015-1.588 0.504-3.316 0.814-5.113 0.997l-0.743 0.067c-0.227 0.021-0.543 0.036-0.78 0.054-0.506 0.034-1.032 0.062-1.544 0.089-0.515 0.024-1.028 0.04-1.538 0.044-0.51 0.009-1.017 0.007-1.52-0.007-1.005-0.028-1.993-0.112-2.945-0.263-0.949-0.159-1.863-0.392-2.694-0.736-0.831-0.342-1.578-0.794-2.18-1.361-0.602-0.566-1.07-1.24-1.38-1.992-0.307-0.751-0.478-1.563-0.547-2.378-0.068-0.816-0.056-1.631-0.017-2.428 0.038-0.798 0.104-1.577 0.111-2.36 0.002-0.392-0.009-0.786-0.071-1.193-0.033-0.204-0.077-0.412-0.152-0.623-0.036-0.105-0.082-0.211-0.135-0.316-0.027-0.052-0.056-0.104-0.088-0.156l-0.031-0.049-0.018-0.026-0.035-0.051c-0.222-0.327-0.493-0.628-0.836-0.86-0.34-0.234-0.753-0.372-1.139-0.396-0.388-0.029-0.741 0.038-1.043 0.135-0.304 0.098-0.565 0.226-0.799 0.359-0.465 0.269-0.818 0.561-1.119 0.817-0.298 0.259-0.531 0.494-0.715 0.689-0.184 0.196-0.32 0.35-0.412 0.457-0.091 0.107-0.139 0.168-0.142 0.172-0.208 0.265-0.161 0.647 0.104 0.855 0.265 0.208 0.649 0.162 0.857-0.103l0.007-0.009c0 0 0.037-0.047 0.108-0.137 0.077-0.094 0.193-0.236 0.357-0.41 0.163-0.174 0.37-0.385 0.626-0.61 0.255-0.226 0.566-0.464 0.926-0.663 0.356-0.197 0.776-0.351 1.142-0.314 0.183 0.019 0.35 0.083 0.515 0.204 0.163 0.12 0.327 0.303 0.464 0.528l0.033 0.053 0.016 0.026c0.005 0.008-0.012-0.018-0.003-0.003l0.004 0.008c0.011 0.02 0.021 0.042 0.031 0.064 0.02 0.046 0.039 0.096 0.055 0.153 0.034 0.111 0.056 0.245 0.072 0.387 0.029 0.288 0.027 0.617 0.005 0.965-0.045 0.697-0.15 1.466-0.236 2.287-0.086 0.821-0.164 1.699-0.145 2.633 0.019 0.931 0.118 1.929 0.433 2.934 0.158 0.501 0.356 1.006 0.619 1.49 0.261 0.485 0.579 0.95 0.945 1.381 0.73 0.865 1.636 1.584 2.608 2.171 0.974 0.587 2.015 1.051 3.081 1.437 1.066 0.389 2.162 0.693 3.268 0.945 0.554 0.125 1.111 0.237 1.67 0.336 0.559 0.095 1.121 0.178 1.683 0.252 0.281 0.037 0.562 0.072 0.844 0.102 0.281 0.028 0.561 0.056 0.851 0.079 0.304 0.026 0.529 0.044 0.843 0.061l0.881 0.039c1.874 0.041 3.804-0.136 5.685-0.616-1.018 0.801-2.051 1.567-3.1 2.288-0.748 0.518-1.507 1.006-2.275 1.513-0.386 0.251-0.775 0.511-1.171 0.788-0.399 0.274-0.799 0.576-1.22 0.919-0.414 0.344-0.852 0.748-1.264 1.247-0.206 0.249-0.406 0.523-0.587 0.814-0.181 0.292-0.338 0.603-0.471 0.917-0.269 0.63-0.411 1.264-0.489 1.837-0.079 0.577-0.084 1.103-0.075 1.597 0.005 0.134 0.01 0.268 0.015 0.401 0.01 0.115 0.02 0.23 0.029 0.344 0.013 0.152 0.027 0.306 0.047 0.433 0.017 0.133 0.039 0.266 0.064 0.398 0.096 0.527 0.238 1.038 0.426 1.518 0.186 0.48 0.408 0.932 0.659 1.348 0.253 0.414 0.531 0.793 0.822 1.138 0.585 0.688 1.223 1.236 1.859 1.676 0.637 0.44 1.269 0.78 1.873 1.052 1.217 0.53 2.32 0.796 3.243 0.912 0.461 0.062 0.877 0.085 1.242 0.082 0.365-0.002 0.677-0.023 0.933-0.061 0.255-0.036 0.452-0.078 0.585-0.114 0.133-0.036 0.201-0.058 0.201-0.058 0.212-0.07 0.373-0.26 0.396-0.497 0.03-0.319-0.204-0.602-0.523-0.631l-0.051-0.005c0 0-0.051-0.005-0.148-0.014-0.098-0.01-0.246-0.03-0.441-0.071-0.194-0.042-0.437-0.102-0.718-0.195-0.281-0.094-0.602-0.216-0.952-0.374-0.696-0.321-1.52-0.78-2.325-1.432-0.807-0.637-1.595-1.484-2.096-2.457-0.251-0.486-0.424-0.999-0.502-1.522-0.039-0.262-0.056-0.527-0.049-0.797 0.002-0.129 0.013-0.288 0.029-0.377l0.012-0.115 0.015-0.153 0.004-0.038c-0.001 0.082 0.001 0.014 0.002 0.028l0.002-0.016 0.009-0.063 0.018-0.126c0.05-0.329 0.12-0.638 0.201-0.893 0.081-0.258 0.18-0.453 0.28-0.607 0.051-0.078 0.107-0.147 0.168-0.22 0.06-0.074 0.129-0.149 0.214-0.232 0.173-0.165 0.396-0.365 0.68-0.587 0.561-0.449 1.298-0.963 2.04-1.518 0.751-0.552 1.523-1.146 2.291-1.757 1.538-1.225 3.042-2.546 4.474-3.917 0.718-0.685 1.415-1.387 2.094-2.097l0.512-0.538c0.164-0.176 0.328-0.351 0.491-0.527 0.346-0.374 0.682-0.752 1.01-1.136 1.31-1.537 2.452-3.184 3.375-4.876 0.426-0.774 1.08-2.325 1.417-3.107-0.092 0.282-0.46 1.332-0.559 1.613-0.226 0.649-0.471 1.294-0.744 1.927-0.269 0.634-0.558 1.259-0.868 1.866-0.308 0.608-0.635 1.201-0.972 1.774-0.337 0.574-0.681 1.131-1.039 1.663-0.712 1.065-1.447 2.051-2.233 2.901-0.229 0.252-0.457 0.503-0.682 0.751l-0.167 0.185-0.175 0.2c-0.116 0.135-0.234 0.267-0.346 0.403-0.231 0.268-0.441 0.537-0.651 0.801-0.104 0.133-0.211 0.261-0.312 0.396-0.099 0.136-0.198 0.27-0.296 0.404-0.198 0.265-0.383 0.537-0.566 0.805-0.186 0.264-0.351 0.542-0.518 0.81C36.29 69.531 36 70.08 35.733 70.613c-0.522 1.077-0.895 2.148-1.094 3.152-0.097 0.505-0.15 0.99-0.164 1.446-0.008 0.459 0.025 0.887 0.089 1.271 0.137 0.775 0.408 1.36 0.657 1.728 0.242 0.372 0.453 0.541 0.487 0.582 0.267 0.295 0.722 0.317 1.016 0.051 0.295-0.267 0.317-0.722 0.051-1.016 0.037 0.041-0.006-0.06-0.045-0.306-0.038-0.244-0.051-0.63 0.032-1.121 0.045-0.247 0.117-0.521 0.214-0.817 0.103-0.297 0.239-0.615 0.402-0.953 0.178-0.336 0.36-0.693 0.604-1.059 0.11-0.185 0.244-0.372 0.371-0.563 0.133-0.19 0.278-0.382 0.42-0.58 0.298-0.392 0.62-0.793 0.971-1.203 0.176-0.205 0.354-0.411 0.545-0.619 0.186-0.209 0.375-0.422 0.579-0.631 0.201-0.21 0.4-0.426 0.613-0.64 0.21-0.214 0.421-0.435 0.639-0.64 0.109-0.104 0.214-0.212 0.322-0.319l0.163-0.162 0.18-0.172c0.238-0.228 0.491-0.464 0.724-0.693 1.121-1.078 2.067-2.355 2.839-3.716 0.175-0.308 0.338-0.621 0.494-0.938-0.062 0.305-0.125 0.608-0.193 0.908-0.094 0.428-0.192 0.852-0.301 1.267-0.107 0.416-0.224 0.823-0.349 1.218-0.063 0.197-0.127 0.393-0.196 0.581-0.033 0.096-0.067 0.191-0.104 0.281l-0.103 0.265c-0.647 1.638-1.284 3.25-1.9 4.81-0.315 0.785-0.624 1.558-0.927 2.314-0.308 0.768-0.633 1.527-0.929 2.333-0.147 0.404-0.284 0.821-0.398 1.252-0.112 0.431-0.198 0.877-0.238 1.32-0.079 0.889 0.01 1.72 0.155 2.455 0.019 0.092 0.038 0.183 0.056 0.274l0.007 0.034c0.001 0.002 0.007 0.042 0.006 0.032l0.004 0.016 0.015 0.062 0.03 0.124c0.021 0.085 0.036 0.159 0.062 0.252 0.024 0.09 0.048 0.179 0.072 0.268 0.097 0.35 0.203 0.672 0.317 0.988 0.229 0.628 0.486 1.202 0.75 1.726 0.526 1.048 1.069 1.902 1.547 2.579 0.477 0.678 0.882 1.185 1.17 1.524 0.143 0.17 0.255 0.299 0.333 0.385 0.081 0.089 0.123 0.135 0.123 0.135 0.153 0.166 0.411 0.191 0.592 0.05 0.19-0.149 0.224-0.423 0.075-0.614l-0.012-0.016c0 0-0.033-0.042-0.096-0.123-0.065-0.085-0.162-0.213-0.283-0.384-0.241-0.344-0.588-0.858-0.974-1.543-0.381-0.686-0.812-1.539-1.179-2.553-0.181-0.507-0.348-1.053-0.481-1.632-0.033-0.145-0.062-0.292-0.093-0.44-0.024-0.147-0.057-0.303-0.075-0.447-0.01-0.073-0.02-0.146-0.031-0.22-0.011-0.07-0.019-0.163-0.029-0.245l-0.014-0.127-0.007-0.064-0.002-0.016c-0.003-0.02 0.002 0.009 0.001 0.001l-0.002-0.029c-0.005-0.079-0.009-0.157-0.014-0.237-0.036-0.634 0.009-1.258 0.175-1.841 0.166-0.583 0.468-1.154 0.865-1.775 0.395-0.619 0.864-1.282 1.339-1.981 0.476-0.699 0.957-1.437 1.408-2.209 0.454-0.771 0.881-1.577 1.271-2.409 0.392-0.819 0.759-1.72 1.075-2.55l0.133-0.374c0.044-0.122 0.083-0.242 0.121-0.363 0.08-0.242 0.15-0.482 0.219-0.722 0.059-0.211 0.115-0.421 0.169-0.631 0.054 0.21 0.109 0.42 0.169 0.631 0.069 0.24 0.139 0.48 0.219 0.722 0.038 0.121 0.077 0.241 0.121 0.363l0.133 0.374c0.316 0.83 0.683 1.731 1.075 2.55 0.39 0.832 0.817 1.638 1.271 2.409 0.451 0.773 0.932 1.51 1.408 2.209 0.475 0.699 0.945 1.361 1.339 1.981 0.396 0.621 0.699 1.192 0.865 1.775 0.166 0.583 0.211 1.208 0.175 1.841-0.005 0.079-0.009 0.158-0.014 0.237l-0.002 0.029c-0.001 0.008 0.004-0.021 0.001-0.001l-0.002 0.016-0.007 0.064-0.014 0.127c-0.01 0.081-0.018 0.174-0.029 0.245-0.01 0.074-0.021 0.147-0.031 0.22-0.018 0.145-0.051 0.3-0.075 0.447-0.03 0.148-0.06 0.295-0.093 0.44-0.133 0.579-0.3 1.125-0.481 1.632-0.367 1.014-0.799 1.867-1.179 2.553-0.386 0.685-0.733 1.199-0.974 1.543-0.121 0.172-0.219 0.299-0.283 0.384-0.064 0.081-0.096 0.123-0.096 0.123l-0.013 0.017c-0.139 0.178-0.119 0.436 0.051 0.591 0.178 0.163 0.455 0.15 0.618-0.028 0 0 0.042-0.046 0.123-0.135 0.078-0.087 0.19-0.216 0.333-0.385 0.288-0.339 0.693-0.846 1.17-1.524 0.479-0.677 1.022-1.53 1.547-2.579 0.264-0.524 0.52-1.098 0.75-1.726 0.114-0.316 0.22-0.638 0.317-0.988 0.024-0.089 0.048-0.178 0.072-0.268 0.025-0.093 0.041-0.167 0.062-0.252l0.03-0.124 0.015-0.062 0.004-0.016c-0.001 0.009 0.006-0.03 0.006-0.032l0.007-0.034c0.019-0.091 0.038-0.182 0.056-0.274 0.145-0.735 0.234-1.566 0.155-2.455-0.04-0.442-0.126-0.888-0.238-1.32-0.114-0.431-0.252-0.848-0.398-1.252-0.296-0.806-0.621-1.565-0.929-2.333-0.303-0.756-0.612-1.528-0.927-2.314-0.616-1.56-1.253-3.172-1.9-4.81l-0.103-0.265c-0.037-0.091-0.07-0.186-0.104-0.281-0.069-0.188-0.133-0.384-0.196-0.581-0.125-0.395-0.242-0.802-0.349-1.218-0.109-0.414-0.207-0.839-0.301-1.267-0.049-0.216-0.095-0.433-0.141-0.652 0.117 0.229 0.237 0.457 0.365 0.682 0.772 1.361 1.717 2.638 2.839 3.716 0.232 0.229 0.485 0.464 0.724 0.693l0.18 0.172 0.163 0.162c0.108 0.107 0.213 0.215 0.322 0.319 0.218 0.205 0.429 0.426 0.639 0.64 0.213 0.214 0.412 0.43 0.613 0.64 0.204 0.209 0.393 0.422 0.579 0.631 0.191 0.208 0.369 0.414 0.545 0.619 0.35 0.411 0.672 0.812 0.971 1.203 0.141 0.198 0.287 0.389 0.42 0.58 0.127 0.191 0.26 0.378 0.371 0.563 0.244 0.366 0.426 0.723 0.604 1.059 0.162 0.337 0.298 0.655 0.402 0.953 0.098 0.296 0.17 0.569 0.214 0.817 0.084 0.491 0.07 0.878 0.032 1.121-0.04 0.247-0.082 0.348-0.045 0.306-0.267 0.295-0.244 0.75 0.051 1.016 0.295 0.267 0.75 0.244 1.016-0.051 0.034-0.041 0.245-0.211 0.487-0.582 0.25-0.368 0.52-0.954 0.657-1.728 0.064-0.385 0.098-0.812 0.089-1.271-0.013-0.456-0.067-0.942-0.164-1.446-0.199-1.004-0.572-2.075-1.094-3.152-0.266-0.534-0.557-1.082-0.892-1.618-0.167-0.268-0.333-0.546-0.518-0.81-0.182-0.268-0.368-0.541-0.566-0.805-0.098-0.134-0.197-0.269-0.296-0.404-0.101-0.135-0.207-0.263-0.312-0.396-0.211-0.264-0.42-0.533-0.651-0.801-0.113-0.135-0.23-0.268-0.346-0.403l-0.175-0.2-0.167-0.185c-0.225-0.248-0.453-0.498-0.682-0.751-0.786-0.85-1.521-1.837-2.233-2.901-0.358-0.532-0.701-1.089-1.039-1.663-0.337-0.574-0.664-1.166-0.972-1.774-0.31-0.607-0.599-1.232-0.868-1.866-0.273-0.633-0.518-1.278-0.744-1.927-0.188-0.536-0.361-1.075-0.525-1.613 0.409 1.037 0.895 2.079 1.46 3.107 0.924 1.691 2.065 3.339 3.375 4.876 0.328 0.385 0.664 0.762 1.01 1.136 0.164 0.175 0.327 0.351 0.491 0.527l0.512 0.538c0.679 0.71 1.377 1.412 2.094 2.097 1.432 1.371 2.937 2.692 4.474 3.917 0.768 0.611 1.54 1.205 2.291 1.757 0.743 0.556 1.479 1.069 2.04 1.518 0.284 0.222 0.507 0.423 0.68 0.587 0.085 0.083 0.154 0.159 0.214 0.232 0.061 0.073 0.117 0.142 0.168 0.22 0.099 0.154 0.198 0.35 0.28 0.607 0.081 0.255 0.151 0.563 0.201 0.893l0.017 0.126 0.009 0.063 0.002 0.016c0-0.014 0.002 0.054 0.002-0.028l0.004 0.038 0.015 0.153 0.012 0.115c0.015 0.088 0.027 0.248 0.029 0.377 0.007 0.27-0.01 0.535-0.049 0.797-0.078 0.524-0.252 1.037-0.502 1.522-0.502 0.973-1.289 1.82-2.096 2.457-0.804 0.652-1.628 1.111-2.325 1.432-0.35 0.158-0.671 0.28-0.952 0.374-0.281 0.093-0.524 0.153-0.718 0.195-0.195 0.041-0.343 0.061-0.441 0.071-0.098 0.009-0.148 0.014-0.148 0.014l-0.052 0.005c-0.222 0.021-0.422 0.17-0.496 0.396-0.1 0.304 0.065 0.632 0.369 0.732 0 0 0.068 0.023 0.201 0.058 0.133 0.036 0.33 0.078 0.585 0.114 0.255 0.038 0.568 0.058 0.933 0.061 0.365 0.003 0.781-0.02 1.242-0.082 0.923-0.117 2.026-0.383 3.243-0.912 0.604-0.272 1.236-0.612 1.873-1.052 0.636-0.44 1.274-0.988 1.859-1.676 0.291-0.345 0.569-0.723 0.822-1.138 0.251-0.415 0.473-0.867 0.659-1.348 0.188-0.48 0.33-0.991 0.426-1.518 0.025-0.132 0.047-0.264 0.064-0.398 0.02-0.127 0.034-0.281 0.047-0.433 0.01-0.114 0.02-0.229 0.029-0.344 0.005-0.133 0.01-0.267 0.015-0.401 0.009-0.494 0.004-1.021-0.075-1.597-0.077-0.573-0.219-1.207-0.489-1.837-0.133-0.314-0.291-0.625-0.471-0.917-0.182-0.291-0.381-0.565-0.587-0.814-0.412-0.499-0.849-0.903-1.264-1.247-0.421-0.343-0.821-0.645-1.22-0.919-0.396-0.277-0.785-0.537-1.171-0.788-0.768-0.507-1.527-0.995-2.275-1.513-1.049-0.721-2.082-1.487-3.1-2.288 1.881 0.48 3.811 0.657 5.685 0.616l0.881-0.039c0.314-0.016 0.539-0.034 0.843-0.061 0.29-0.024 0.57-0.052 0.851-0.079 0.282-0.03 0.563-0.066 0.844-0.102 0.562-0.074 1.123-0.157 1.683-0.252 0.559-0.099 1.116-0.211 1.67-0.336 1.107-0.252 2.203-0.555 3.268-0.945 1.066-0.386 2.107-0.85 3.081-1.437 0.972-0.586 1.877-1.306 2.608-2.171 0.366-0.43 0.684-0.896 0.945-1.381 0.263-0.484 0.461-0.989 0.619-1.49 0.315-1.005 0.414-2.003 0.433-2.934 0.019-0.934-0.059-1.812-0.145-2.633-0.086-0.82-0.191-1.589-0.236-2.287-0.023-0.348-0.025-0.677 0.005-0.965 0.016-0.142 0.038-0.276 0.072-0.387 0.016-0.057 0.035-0.107 0.055-0.153 0.01-0.023 0.02-0.045 0.031-0.064l0.004-0.008c0.009-0.014-0.008 0.011-0.003 0.003l0.016-0.026 0.033-0.053c0.137-0.225 0.301-0.408 0.464-0.528 0.165-0.121 0.332-0.185 0.515-0.204 0.366-0.037 0.787 0.116 1.142 0.314 0.359 0.2 0.671 0.438 0.926 0.663 0.256 0.226 0.463 0.436 0.626 0.61 0.164 0.174 0.28 0.316 0.357 0.41 0.071 0.09 0.108 0.137 0.108 0.137l0.006 0.007c0.207 0.266 0.591 0.314 0.857 0.106C95.031 46.499 95.078 46.115 94.871 45.849zM66.532 25.466c0 0 0.001-0.005 0.002-0.013 0 0.007-0.001 0.015-0.001 0.022C66.532 25.472 66.532 25.469 66.532 25.466zM63.341 16.358l-0.001-0.013c0.052 0.06 0.104 0.12 0.156 0.181C63.444 16.47 63.394 16.414 63.341 16.358zM36.513 33.993l0.207 0.372c-0.086-0.131-0.17-0.262-0.253-0.394L36.513 33.993z" fill="#e72f1e" data-fill-palette-color="accent"></path></svg></g></svg></g></svg></g></svg></g></svg></g></svg></g></svg><rect width="95.48100000000001" height="85.38188085057705" fill="transparent" stroke="transparent"></rect></g></svg></g></svg>